<?xml version="1.0" encoding="UTF-8"?>
<svg version="1.1" xmlns="http://www.w3.org/2000/svg" width="522" height="630">
<path d="M0 0 C172.26 0 344.52 0 522 0 C522 207.9 522 415.8 522 630 C349.74 630 177.48 630 0 630 C0 422.1 0 214.2 0 0 Z " fill="#0A0A0A" transform="translate(0,0)"/>
<path d="M0 0 C172.26 0 344.52 0 522 0 C522 207.9 522 415.8 522 630 C349.74 630 177.48 630 0 630 C0 422.1 0 214.2 0 0 Z M166 15 C166 15.66 166 16.32 166 17 C165.28070313 17.09410156 164.56140625 17.18820313 163.8203125 17.28515625 C149.29764171 20.9661102 137.2187554 37.5431671 129.1171875 49.37158203 C128.22208019 50.67629483 127.30244615 51.96416698 126.375 53.24609375 C115.17758571 69.51733639 112.67783162 92.0526443 112.77294922 111.21166992 C112.77351444 112.81918328 112.7731946 114.42669715 112.77206421 116.03421021 C112.77149404 120.36611138 112.78319357 124.69790016 112.79721212 129.02977538 C112.80977585 133.56877928 112.81089441 138.1077862 112.81326294 142.64680481 C112.81946121 151.22775201 112.8358495 159.8086478 112.85596192 168.38957244 C112.87837257 178.16472501 112.8893273 187.93988012 112.89935279 197.71505201 C112.92021731 217.81006328 112.95536092 237.90502839 113 258 C111.80428375 257.98428955 111.80428375 257.98428955 110.58441162 257.96826172 C106.92609895 257.92634556 103.26783706 257.90056131 99.609375 257.875 C98.35560059 257.85824219 97.10182617 257.84148437 95.81005859 257.82421875 C70.80154986 257.69336978 49.67992487 269.42215364 31.6953125 286.25390625 C22.48059179 295.64223764 16.30690698 306.03806047 11 318 C10.2575 319.67255859 10.2575 319.67255859 9.5 321.37890625 C-0.59434919 345.86371157 -0.53391411 376.33260907 9.17138672 400.97412109 C14.0707197 412.59824634 19.6433758 423.48194668 28 433 C28.63373535 433.7425 28.63373535 433.7425 29.28027344 434.5 C42.10839752 449.49269433 57.314319 460.46117514 76 467 C77.10730469 467.39316406 78.21460937 467.78632813 79.35546875 468.19140625 C101.6148089 474.92315612 129.58389455 472.9012349 151 464 C152.95829738 463.22907533 154.91662689 462.45823227 156.875 461.6875 C158.25112498 461.12775784 159.62661869 460.56644068 161 460 C161 459.34 161 458.68 161 458 C161.72058594 457.73058594 162.44117188 457.46117187 163.18359375 457.18359375 C184.54154298 448.20792299 200.54002454 426.80092959 209.25 405.9375 C209.85229522 404.2985108 210.43485224 402.6521662 211 401 C211.34804687 400.02933594 211.69609375 399.05867188 212.0546875 398.05859375 C215.83212131 386.8227961 217 375.84618253 217 364 C253.96 364 290.92 364 329 364 C329 381.49 329 398.98 329 417 C322.4 417 315.8 417 309 417 C288.77220471 420.20273425 272.99626228 429.47712553 258 443 C257.32066406 443.59554688 256.64132812 444.19109375 255.94140625 444.8046875 C250.29088259 450.05067021 246.17614503 456.57394697 242 463 C241.51402344 463.73992187 241.02804688 464.47984375 240.52734375 465.2421875 C236.11538992 472.53396972 233.48901733 480.88668857 231 489 C230.72567139 489.86343018 230.45134277 490.72686035 230.16870117 491.61645508 C227.64436486 500.40997275 227.48821908 508.99950109 227.5625 518.0625 C227.56520905 518.83424561 227.56791809 519.60599121 227.57070923 520.40112305 C227.65751246 536.69732035 229.29388319 551.34115769 237 566 C237.50273437 567.09441406 238.00546875 568.18882812 238.5234375 569.31640625 C242.69566027 578.23869485 247.76410858 585.40620927 254 593 C254.68578125 593.87914062 255.3715625 594.75828125 256.078125 595.6640625 C267.9771158 610.12665701 285.30858119 619.02230089 303.171875 623.30859375 C305.40107901 623.85357871 307.61147078 624.47551597 309.8125 625.125 C326.45331381 629.69306654 344.64227344 627.57331203 361 623 C362.08796875 622.72671875 363.1759375 622.4534375 364.296875 622.171875 C367.73105279 621.30629943 367.73105279 621.30629943 371 620 C371.33 619.01 371.66 618.02 372 617 C372.71800781 616.88785156 373.43601562 616.77570312 374.17578125 616.66015625 C383.35629219 614.51422769 390.97320984 607.96874647 398 602 C399.46179688 600.84371094 399.46179688 600.84371094 400.953125 599.6640625 C404.23532938 596.92428503 406.83388464 593.81511242 409.4375 590.4375 C409.91340576 589.82036133 410.38931152 589.20322266 410.87963867 588.56738281 C418.86506745 578.03922896 423.58333076 567.50513525 427.39306641 554.94238281 C427.89122585 553.34811227 428.45793255 551.77541634 429.04296875 550.2109375 C432.23448548 539.50307321 432.27852269 528.72577876 432.22705078 517.66503906 C432.22648552 515.94900519 432.22680547 514.23297084 432.22793579 512.51693726 C432.22850582 507.89378516 432.21680862 503.27073844 432.20278788 498.64761066 C432.19022174 493.80298215 432.1891054 488.95835079 432.18673706 484.1137085 C432.1805395 474.95551588 432.16415216 465.79737144 432.14403808 456.63919997 C432.12162523 446.206237 432.11067214 435.77327163 432.10064721 425.34029055 C432.07978429 403.89350022 432.04464206 382.44675315 432 361 C433.63835815 361.02719116 433.63835815 361.02719116 435.30981445 361.05493164 C439.06669374 360.99900721 441.51403503 360.32162741 445 359 C448.15929903 358.02089478 451.32357908 357.05913403 454.48828125 356.09765625 C455.64714844 355.73542969 456.80601562 355.37320312 458 355 C458.69673828 354.80067871 459.39347656 354.60135742 460.11132812 354.39599609 C466.0130834 352.61088148 470.79510168 349.96570434 475.875 346.5 C477.04953735 345.70323853 477.04953735 345.70323853 478.24780273 344.89038086 C489.53481764 337.04457165 497.65205887 327.62188119 505 316 C505.71285156 314.90945313 506.42570312 313.81890625 507.16015625 312.6953125 C519.35163343 292.96107094 522.37540881 267.17561071 517.4375 244.625 C515.3581505 235.96200374 512.00262725 227.93620649 508 220 C507.19755859 218.39511719 507.19755859 218.39511719 506.37890625 216.7578125 C502.02835767 208.72442544 496.41223351 202.41223351 490 196 C489.2575 195.2575 488.515 194.515 487.75 193.75 C478.61396235 185.15137633 467.3206356 179.22746997 456 174 C455.21238281 173.62875 454.42476563 173.2575 453.61328125 172.875 C450.28137629 171.75938459 447.19101877 171.571459 443.6875 171.375 C442.43324219 171.30023438 441.17898438 171.22546875 439.88671875 171.1484375 C438.93410156 171.09945312 437.98148437 171.05046875 437 171 C437 170.34 437 169.68 437 169 C420.3005948 168.51660595 404.95332338 168.68222554 389 174 C388.67 174.66 388.34 175.32 388 176 C385.99609375 176.9296875 385.99609375 176.9296875 383.4375 177.875 C382.52484375 178.23207031 381.6121875 178.58914062 380.671875 178.95703125 C379.12124192 179.56232223 377.5696511 180.16519298 376.015625 180.76171875 C362.36183142 186.74254713 351.01154176 200.11299302 343 212.25 C342.61360352 212.82854736 342.22720703 213.40709473 341.82910156 214.00317383 C339.51586479 217.64730679 338.41614962 220.70845705 338 225 C337.34 225 336.68 225 336 225 C332.24576751 235.57664484 329 245.70801723 329 257 C293.03 257 257.06 257 220 257 C220 243.8 220 230.6 220 217 C222.97 217 225.94 217 229 217 C232.15248576 216.76149933 235.25234515 216.3032805 238.375 215.8125 C239.20427002 215.68230469 240.03354004 215.55210937 240.88793945 215.41796875 C246.5122772 214.45081346 251.40993646 212.97631997 256.48046875 210.28125 C258.60673433 209.19998627 260.59769844 208.41501916 262.83984375 207.6328125 C267.08630911 206.07383889 270.65346652 203.92229665 274.375 201.375 C275.0242041 200.93478516 275.6734082 200.49457031 276.34228516 200.04101562 C289.1845355 191.16760944 300.54128984 179.81420273 308 166 C308 165.34 308 164.68 308 164 C308.66 164 309.32 164 310 164 C310.93987347 161.83433685 311.8769273 159.66752069 312.8125 157.5 C313.33457031 156.2934375 313.85664063 155.086875 314.39453125 153.84375 C325.97133956 126.42592088 324.87130169 96.03004538 314.1875 68.5625 C309.45205724 56.98526494 302.96972901 47.59349917 295 38 C294.55527344 37.40832031 294.11054688 36.81664062 293.65234375 36.20703125 C286.5535901 27.06765728 276.26845406 20.35770452 266.1875 14.9375 C265.5071167 14.5677002 264.8267334 14.19790039 264.12573242 13.81689453 C259.22348594 11.29438511 254.41825182 9.96403173 249 9 C249 8.34 249 7.68 249 7 C221.38992876 -1.38162877 191.46004984 1.81883398 166 15 Z " fill="#FCFCFC" transform="translate(0,0)"/>
<path d="M0 0 C3.35690505 1.62789673 6.11041751 3.65815268 9 6 C9.69738281 6.48855469 10.39476562 6.97710937 11.11328125 7.48046875 C20.70899298 14.22095929 26.9599002 23.23242823 29.65625 34.8203125 C30.10755395 38.99487407 30.18418284 43.11629511 30.1875 47.3125 C30.19974609 48.11623047 30.21199219 48.91996094 30.22460938 49.74804688 C30.2432629 57.47682584 29.56953448 64.71615881 24.8125 71.0625 C24.19246094 71.89007813 23.57242188 72.71765625 22.93359375 73.5703125 C14.10216606 84.66758123 14.10216606 84.66758123 9 87 C8.34 87 7.68 87 7 87 C7 87.66 7 88.32 7 89 C5.03273264 89.73355732 3.06540459 90.46695261 1.09765625 91.19921875 C-0.53401298 91.82210924 -2.14658444 92.49511601 -3.75 93.1875 C-6 94 -6 94 -10 94 C-10 89.05 -10 84.1 -10 79 C-8.72125 78.649375 -7.4425 78.29875 -6.125 77.9375 C2.29689664 75.03750729 8.38791328 70.76546246 13.125 63.125 C17.81226083 53.50669645 17.62405928 42.80442563 14.25 32.75 C10.73801534 24.70876615 5.35413525 20.56717581 -2 16 C-2.99 15.67 -3.98 15.34 -5 15 C-5 14.34 -5 13.68 -5 13 C-8.06273831 12.94589864 -11.12451452 12.90627775 -14.1875 12.875 C-15.48397461 12.84986328 -15.48397461 12.84986328 -16.80664062 12.82421875 C-21.38290915 12.78915156 -24.8128621 12.95636939 -29 15 C-30.27875 15.2475 -31.5575 15.495 -32.875 15.75 C-39.23325295 17.30663443 -43.22687763 21.53247414 -46.75 26.875 C-52.18717153 36.24696671 -53.14970721 45.12051015 -53.13130188 55.80836487 C-53.13341759 56.89871109 -53.13553331 57.98905732 -53.13771313 59.11244434 C-53.14370593 62.76711166 -53.14271348 66.42174438 -53.1418457 70.07641602 C-53.14487772 72.6965694 -53.14839929 75.31672226 -53.15237427 77.93687439 C-53.16047744 83.58109593 -53.1654278 89.22531298 -53.16866493 94.86953926 C-53.1741726 103.79992184 -53.19108207 112.73026645 -53.21000671 121.66062927 C-53.21636317 124.71906751 -53.22267168 127.77750585 -53.22898388 130.83594418 C-53.23056764 131.60026779 -53.2321514 132.36459141 -53.23378316 133.15207635 C-53.25171162 141.84820768 -53.26794112 150.54434169 -53.28295898 159.24047852 C-53.28502279 160.43250109 -53.28502279 160.43250109 -53.28712829 161.64860492 C-53.3090384 174.51429346 -53.31981012 187.37997216 -53.32732973 200.24567605 C-53.33541518 213.47050786 -53.35875199 226.69525573 -53.3952834 239.92003959 C-53.41724798 248.06766968 -53.42699164 256.21512686 -53.42078307 264.36278503 C-53.41759603 269.95360934 -53.42902016 275.54428655 -53.45167748 281.13506532 C-53.46428015 284.35498968 -53.46839202 287.5745221 -53.45926094 290.79446793 C-53.38553664 319.72328857 -53.38553664 319.72328857 -61.9375 333 C-62.58589844 334.03125 -63.23429687 335.0625 -63.90234375 336.125 C-66.05143482 339.07049539 -68.35379556 341.49774908 -71 344 C-71.80824219 344.78697266 -71.80824219 344.78697266 -72.6328125 345.58984375 C-83.34430518 355.26383583 -95.22310733 359.52702559 -109.4375 359.375 C-110.51837891 359.38660156 -111.59925781 359.39820313 -112.71289062 359.41015625 C-119.3773587 359.38590712 -124.85265161 358.57898156 -131 356 C-131.89589844 355.64679688 -132.79179687 355.29359375 -133.71484375 354.9296875 C-147.03523205 348.60894086 -156.21368069 337.45713046 -161.93359375 324.03515625 C-168.60567951 305.04537371 -166.72771981 288.08364889 -159 270 C-158.34 270 -157.68 270 -157 270 C-156.896875 269.41863281 -156.79375 268.83726562 -156.6875 268.23828125 C-154.3061507 260.48536564 -144.95259454 253.64673068 -138.0703125 249.96875 C-130.29914415 246.74419882 -121.36283756 245.61987102 -113 246 C-113 250.29 -113 254.58 -113 259 C-114.93875 259.226875 -116.8775 259.45375 -118.875 259.6875 C-129.56403751 261.37035607 -137.1154394 265.60496999 -144 274 C-151.65687957 285.73049038 -153.12372137 299.77511678 -150.3046875 313.34765625 C-148.23209863 319.53929779 -144.85784733 324.77494853 -141 330 C-140.4225 330.886875 -139.845 331.77375 -139.25 332.6875 C-134.27016381 337.80566498 -126.52124144 342.56526525 -119.30859375 343.25878906 C-118.36113281 343.26104492 -117.41367187 343.26330078 -116.4375 343.265625 C-114.87128906 343.26949219 -114.87128906 343.26949219 -113.2734375 343.2734375 C-112.19320312 343.26570313 -111.11296875 343.25796875 -110 343.25 C-108.91976562 343.25773437 -107.83953125 343.26546875 -106.7265625 343.2734375 C-105.68242187 343.27085937 -104.63828125 343.26828125 -103.5625 343.265625 C-102.14130859 343.26224121 -102.14130859 343.26224121 -100.69140625 343.25878906 C-97.79054566 342.97986016 -95.65584041 342.16638629 -93 341 C-91.34080104 340.63128912 -89.6752357 340.28718326 -88 340 C-88 339.34 -88 338.68 -88 338 C-86.7315625 337.195625 -86.7315625 337.195625 -85.4375 336.375 C-76.29808321 330.51197791 -70.94428447 320.70107611 -68.42615795 310.3567903 C-67.62992133 305.95334612 -67.72022066 301.54529555 -67.73498535 297.08279419 C-67.73060408 296.00495663 -67.72622281 294.92711906 -67.72170877 293.81661975 C-67.70941835 290.21640833 -67.7111949 286.61634321 -67.71289062 283.01611328 C-67.70686453 280.43020411 -67.6999398 277.8442969 -67.69218445 275.25839233 C-67.67675965 269.69495581 -67.66832636 264.13154456 -67.66447449 258.56808853 C-67.65871349 250.51346878 -67.64010485 242.45891676 -67.61803395 234.40432702 C-67.5823456 221.32050645 -67.55401991 208.23668203 -67.53173828 195.15283203 C-67.53040329 194.37045685 -67.5290683 193.58808166 -67.52769285 192.78199814 C-67.51826685 187.22966575 -67.50910395 181.67733293 -67.5 176.125 C-67.4896044 169.78596974 -67.47908659 163.4469397 -67.46826172 157.10791016 C-67.46693098 156.32709914 -67.46560023 155.54628813 -67.46422917 154.74181618 C-67.44177452 141.70793205 -67.41156834 128.67407684 -67.37586927 115.64022243 C-67.35424788 107.60918923 -67.33959586 99.57820103 -67.33403051 91.54714034 C-67.32926879 85.3896344 -67.31446586 79.23219019 -67.29603004 73.07471085 C-67.29016121 70.55364543 -67.28768034 68.03256946 -67.28886986 65.5114975 C-67.29003239 62.06463138 -67.27898514 58.61800638 -67.26501465 55.1711731 C-67.26831362 54.17854812 -67.2716126 53.18592314 -67.27501154 52.16321862 C-67.18309093 38.37838529 -63.95789126 25.67114915 -55 15 C-54.38125 14.13375 -53.7625 13.2675 -53.125 12.375 C-48.06920344 6.72440384 -42.38065042 3.43119155 -35.296875 0.859375 C-33.01488769 0.08020526 -33.01488769 0.08020526 -31.1328125 -1.09375 C-22.94576931 -4.57249363 -8.24591406 -2.14312123 0 0 Z " fill="#F0F0F1" transform="translate(441,219)"/>
<path d="M0 0 C1.15822266 0.3403125 1.15822266 0.3403125 2.33984375 0.6875 C19.85221393 6.41751887 35.39511568 21.35961794 43.8125 37.46875 C45.28873773 40.61994978 46.68172576 43.77995309 48 47 C48.34160156 47.76441406 48.68320312 48.52882812 49.03515625 49.31640625 C52.05321563 57.71076574 52.30809944 65.75515163 52.25 74.625 C52.25773438 75.81351562 52.26546875 77.00203125 52.2734375 78.2265625 C52.26012653 84.18987812 52.04076224 89.331216 50 95 C49.46632813 96.80597656 49.46632813 96.80597656 48.921875 98.6484375 C46.5359274 106.23575086 43.92814171 112.67938582 39 119 C38.46503906 119.73476563 37.93007813 120.46953125 37.37890625 121.2265625 C27.07882171 135.07101793 14.33634886 144.42310849 -2 150 C-2.76828125 150.29648437 -3.5365625 150.59296875 -4.328125 150.8984375 C-9.43346613 152.79123404 -13.56065873 153.29669134 -19 153 C-19.02685412 150.68756208 -19.04632841 148.3750373 -19.0625 146.0625 C-19.07410156 144.77472656 -19.08570313 143.48695313 -19.09765625 142.16015625 C-19 139 -19 139 -18 138 C-16.31372397 137.80179396 -14.6258679 137.61701691 -12.9375 137.4375 C2.26402343 135.00670747 16.91609343 125.27271442 26 113 C33.98545038 101.09779594 37.73594179 89.97455085 37.5 75.625 C37.48078491 73.8450061 37.48078491 73.8450061 37.46118164 72.02905273 C37.03348808 53.54177635 30.45815106 38.90696398 17 26 C14.86091019 24.28730683 12.70892252 22.68200652 10.43359375 21.15625 C9.72396484 20.58390625 9.72396484 20.58390625 9 20 C9 19.34 9 18.68 9 18 C8.32582031 17.88785156 7.65164063 17.77570313 6.95703125 17.66015625 C3.42125328 16.87079499 0.08056434 15.68500151 -3.3125 14.4375 C-3.95767578 14.20353516 -4.60285156 13.96957031 -5.26757812 13.72851562 C-6.84621219 13.15552993 -8.42327026 12.57820536 -10 12 C-10 11.34 -10 10.68 -10 10 C-20.23 9.67 -30.46 9.34 -41 9 C-41 9.66 -41 10.32 -41 11 C-44.96 11.66 -48.92 12.32 -53 13 C-53 13.66 -53 14.32 -53 15 C-53.99 15.37125 -54.98 15.7425 -56 16.125 C-60.53013318 18.06517825 -64.19296982 20.91168019 -68 24 C-68.97582031 24.76054687 -69.95164062 25.52109375 -70.95703125 26.3046875 C-83.0902507 36.47061521 -88.78999705 52.80357375 -91 68 C-91.71097843 76.61439734 -91.53481776 85.27767571 -91.49829102 93.91381836 C-91.50212092 96.49120395 -91.50774565 99.06858739 -91.51501465 101.64596558 C-91.52801247 107.16345539 -91.52700725 112.68079321 -91.51642036 118.19828606 C-91.50137924 126.18620199 -91.51146981 134.17394227 -91.52793955 142.16184837 C-91.5543079 155.14086271 -91.56526275 168.11983726 -91.56420898 181.09887695 C-91.56415066 181.87317201 -91.56409234 182.64746706 -91.56403225 183.4452256 C-91.56376638 186.58278422 -91.56344909 189.72034282 -91.56306899 192.85790142 C-91.56210121 201.50984172 -91.56343344 210.16178081 -91.56616211 218.8137207 C-91.566402 219.58918021 -91.56664189 220.36463971 -91.56688906 221.16359799 C-91.57130008 234.10736604 -91.58754594 247.05109724 -91.6113829 259.99484354 C-91.62541789 267.96125615 -91.62836574 275.92752829 -91.61676001 283.89394564 C-91.60855226 289.99477901 -91.61530939 296.0955002 -91.62744904 302.19633102 C-91.62985308 304.6932219 -91.62712726 307.1901239 -91.61884117 309.68700218 C-91.60819128 313.10062676 -91.6159936 316.51374437 -91.62818909 319.92735291 C-91.62061303 320.90994786 -91.61303698 321.89254281 -91.60523134 322.90491337 C-91.66901664 331.35115782 -93.03346001 339.46149176 -98.5625 346.125 C-99.16191406 346.87007812 -99.76132812 347.61515625 -100.37890625 348.3828125 C-102 350 -102 350 -104 350 C-104 350.66 -104 351.32 -104 352 C-111.39422456 356.08964519 -118.1473562 357.49111944 -126.453125 355.375 C-133.97861875 352.50814524 -138.71484414 346.86474196 -142.4375 339.875 C-145.09601579 333.2344649 -145.20769409 325.44488594 -143.33984375 318.5703125 C-142.40771711 316.49622984 -141.36075354 314.81975398 -140 313 C-139.53722656 312.34 -139.07445312 311.68 -138.59765625 311 C-135.92985369 307.76471866 -134.04686187 306.22011614 -129.87890625 305.34375 C-126.92764731 305.09346656 -123.96166571 305.03327714 -121 305 C-121 309.62 -121 314.24 -121 319 C-122.98 319.66 -124.96 320.32 -127 321 C-130.25831207 324.58414327 -130.51089788 328.18217222 -130.36328125 332.84375 C-129.82073377 336.0640318 -128.3380273 337.79950371 -126 340 C-122.2733017 341.86334915 -118.05750903 341.56630878 -114 341 C-110.39592515 339.10273295 -108.24906145 336.37359218 -106 333 C-105.70112075 330.86515382 -105.70112075 330.86515382 -105.74946022 328.47447681 C-105.74196217 327.07476775 -105.74196217 327.07476775 -105.73431265 325.64678174 C-105.73897587 324.61976909 -105.74363908 323.59275644 -105.7484436 322.53462219 C-105.74547346 321.44487239 -105.74250333 320.35512258 -105.73944318 319.23235005 C-105.73177281 315.56150428 -105.73830987 311.8908171 -105.74462891 308.2199707 C-105.74188028 305.59527477 -105.73820117 302.97057967 -105.73365784 300.34588623 C-105.7250149 294.68196584 -105.72321929 289.01807669 -105.72560501 283.35415077 C-105.72870245 275.14760012 -105.7170629 266.94111848 -105.70105521 258.73458519 C-105.67507151 245.39752586 -105.65506728 232.06046648 -105.64160156 218.72338867 C-105.64079119 217.92480677 -105.63998082 217.12622487 -105.6391459 216.30344351 C-105.62794813 204.99544124 -105.62264898 193.68744388 -105.61975877 182.37943681 C-105.61955478 181.5847964 -105.61935079 180.79015598 -105.61914062 179.97143555 C-105.61894069 179.17776836 -105.61874075 178.38410117 -105.61853476 177.56638346 C-105.6147918 164.29530835 -105.59563307 151.02430767 -105.56404626 137.75326985 C-105.54519914 129.57743106 -105.53912841 121.40178383 -105.54986344 113.2259294 C-105.55621956 107.60983372 -105.54803868 101.99387443 -105.52880932 96.37780861 C-105.5182058 93.1453758 -105.51606451 89.91333902 -105.52728081 86.68089867 C-105.57033671 73.17583843 -105.26903104 60.90066641 -101 48 C-100.63231318 46.83238286 -100.26462635 45.66476572 -99.8857975 44.46176624 C-93.52226967 25.02887007 -78.10051166 10.95370461 -60.44140625 1.65234375 C-41.71597471 -6.65252724 -19.16936024 -6.15592206 0 0 Z " fill="#F1F1F1" transform="translate(450,191)"/>
<path d="M0 0 C6.17118241 0.55099843 9.89637032 3.3931069 13.875 7.875 C17.09524732 11.74101885 17.84526806 15.10791349 17.7890625 20.17578125 C17.28298008 23.91668778 15.68529856 26.25308202 13.5 29.3125 C12.51 29.6425 11.52 29.9725 10.5 30.3125 C10.5 30.9725 10.5 31.6325 10.5 32.3125 C8.025 32.8075 8.025 32.8075 5.5 33.3125 C5.44392578 31.61480469 5.44392578 31.61480469 5.38671875 29.8828125 C5.32106918 28.40100795 5.25462149 26.91923861 5.1875 25.4375 C5.16494141 24.69113281 5.14238281 23.94476563 5.11914062 23.17578125 C5.02188055 21.212896 4.76957706 19.25921678 4.5 17.3125 C0.82003497 14.85918998 -1.15413172 14.91742107 -5.5 15.3125 C-7.61630459 18.48695688 -7.75004887 19.24017392 -7.75053978 22.86925793 C-7.75553848 23.80936409 -7.76053717 24.74947026 -7.76568735 25.71806449 C-7.76102413 26.75285904 -7.75636092 27.78765358 -7.7515564 28.85380554 C-7.75452654 29.95172245 -7.75749667 31.04963936 -7.76055682 32.18082649 C-7.7682274 35.87931093 -7.76169004 39.57763798 -7.75537109 43.27612305 C-7.75811971 45.92052789 -7.76168038 48.56491918 -7.76634216 51.20932007 C-7.77498519 56.91580225 -7.77678069 62.62225341 -7.77439499 68.32874107 C-7.77129762 76.59682969 -7.78293685 84.86484981 -7.79894479 93.1329212 C-7.82492856 106.56980917 -7.84493278 120.0066972 -7.85839844 133.44360352 C-7.85961399 134.65044821 -7.85961399 134.65044821 -7.8608541 135.88167361 C-7.87205209 147.2745978 -7.87735107 158.66751711 -7.88024123 170.06044606 C-7.88044522 170.86106771 -7.88064921 171.66168936 -7.88085938 172.48657227 C-7.88105931 173.28621345 -7.88125925 174.08585463 -7.88146524 174.90972736 C-7.88520808 188.28024329 -7.90436593 201.65068533 -7.93595374 215.02116424 C-7.95480177 223.25842152 -7.96087102 231.49548867 -7.95013656 239.73276148 C-7.9437809 245.39090632 -7.95196006 251.04891577 -7.97119068 256.70703097 C-7.98179518 259.96376604 -7.98393427 263.22010794 -7.97271919 266.47685051 C-7.88336358 294.71798203 -13.50741297 317.75929355 -33.73046875 338.62890625 C-40.91380127 345.5893427 -55.01305293 356.3125 -65.5 356.3125 C-65.5 356.9725 -65.5 357.6325 -65.5 358.3125 C-72.06302518 360.60192739 -78.5909701 361.04813569 -85.5 361.3125 C-86.35287598 361.34649902 -87.20575195 361.38049805 -88.08447266 361.41552734 C-114.04949937 362.30433886 -134.56261745 356.22818385 -154.125 338.125 C-163.08043742 328.62349933 -169.89946385 317.49125608 -174.5 305.3125 C-174.88526855 304.29953857 -174.88526855 304.29953857 -175.27832031 303.26611328 C-179.06605717 292.78054904 -179.94958226 282.61320637 -180 271.5 C-180.00636475 270.30874512 -180.01272949 269.11749023 -180.01928711 267.89013672 C-179.8446809 255.67782442 -177.42987207 244.46532534 -172.5 233.3125 C-172.0875 232.178125 -171.675 231.04375 -171.25 229.875 C-163.56842236 214.23750265 -148.5435979 198.08006236 -131.8984375 191.99609375 C-130.56017368 191.57153536 -129.21885662 191.15650865 -127.875 190.75 C-127.16569336 190.53384033 -126.45638672 190.31768066 -125.72558594 190.0949707 C-115.82272773 187.1458753 -106.85451456 186.06886436 -96.5 186.3125 C-96.5 190.9325 -96.5 195.5525 -96.5 200.3125 C-98.04171875 200.43367187 -99.5834375 200.55484375 -101.171875 200.6796875 C-103.19795263 200.8485273 -105.2239924 201.01782186 -107.25 201.1875 C-108.26578125 201.26613281 -109.2815625 201.34476563 -110.328125 201.42578125 C-111.3078125 201.50957031 -112.2875 201.59335937 -113.296875 201.6796875 C-114.19760742 201.75300293 -115.09833984 201.82631836 -116.02636719 201.90185547 C-118.5079596 202.18867275 -118.5079596 202.18867275 -120.57519531 203.35205078 C-122.5 204.3125 -122.5 204.3125 -126.5 204.3125 C-126.5 204.9725 -126.5 205.6325 -126.5 206.3125 C-127.469375 206.663125 -128.43875 207.01375 -129.4375 207.375 C-142.84894042 213.1613876 -153.99733958 226.25615378 -159.41650391 239.56298828 C-166.53139589 258.69972979 -168.23340811 277.78066544 -161.5 297.3125 C-161.273125 298.05113281 -161.04625 298.78976562 -160.8125 299.55078125 C-154.75605222 317.833683 -142.36438699 332.24721197 -125.359375 341.09375 C-120.56212022 343.13848155 -115.60239275 344.29736427 -110.5 345.3125 C-110.5 345.9725 -110.5 346.6325 -110.5 347.3125 C-82.20851074 348.00533454 -82.20851074 348.00533454 -56.5 337.5625 C-55.4490918 336.89335571 -55.4490918 336.89335571 -54.37695312 336.21069336 C-38.08867554 325.67758188 -27.32265916 309.92192235 -22.94996548 290.92260456 C-20.7638002 278.96264275 -21.21515679 266.84117254 -21.22875977 254.72924805 C-21.2243677 252.13935686 -21.2190638 249.54946709 -21.21292114 246.95957947 C-21.2009365 241.40331681 -21.19577144 235.84708271 -21.19503975 230.29080772 C-21.19370797 222.24887255 -21.17854401 214.20700617 -21.15954458 206.16509543 C-21.12877844 193.1028293 -21.10457585 180.04056143 -21.08666992 166.97827148 C-21.08559724 166.19819919 -21.08452456 165.41812689 -21.08341938 164.61441604 C-21.07159006 155.90442426 -21.06138324 147.19443179 -21.05297852 138.48443604 C-21.0499041 135.32124835 -21.04681539 132.15806069 -21.04370117 128.99487305 C-21.04293583 128.21424485 -21.04217049 127.43361664 -21.04138196 126.62933304 C-21.0282945 113.60659079 -21.00365266 100.58389879 -20.96995777 87.56119376 C-20.94969788 79.53978192 -20.9393742 71.51847758 -20.94194698 63.49703995 C-20.94310562 57.35448382 -20.92894122 51.21205092 -20.90913773 45.06952858 C-20.90353606 42.55245702 -20.90305495 40.03536807 -20.90807533 37.51829529 C-20.9142111 34.08184398 -20.90199467 30.64592355 -20.88526917 27.20951843 C-20.89148098 26.21447837 -20.8976928 25.21943831 -20.90409285 24.19424552 C-20.83810872 16.75157942 -19.77934269 9.86558561 -14.25 4.375 C-9.80109565 0.26256741 -5.81229274 0.51895471 0 0 Z " fill="#F2F2F2" transform="translate(424.5,247.6875)"/>
<path d="M0 0 C2.25966878 0.00113229 4.51933902 0.0004872 6.77900696 -0.00177002 C12.82917944 -0.00290321 18.87902538 0.02037651 24.92912292 0.04852581 C31.28313477 0.0737757 37.63715665 0.07589985 43.99121094 0.08062744 C54.62880662 0.0915901 65.26627546 0.11646054 75.90380859 0.15234375 C86.84683659 0.18921844 97.78983234 0.21745385 108.73291016 0.234375 C109.41062678 0.23542589 110.0883434 0.23647679 110.78659689 0.23755953 C114.18745379 0.24278074 117.5883109 0.24783532 120.98916817 0.25280714 C149.07749587 0.29408487 177.16569365 0.36467258 205.25390625 0.45410156 C205.28076563 2.59986793 205.30023713 4.74572802 205.31640625 6.89160156 C205.32800781 8.0865625 205.33960938 9.28152344 205.3515625 10.51269531 C205.25390625 13.45410156 205.25390625 13.45410156 204.25390625 14.45410156 C201.29514862 14.55784996 198.35944329 14.59567558 195.40005493 14.59213257 C193.98933891 14.59636449 193.98933891 14.59636449 192.55012357 14.6006819 C189.37276303 14.60906936 186.19543714 14.61036971 183.01806641 14.61181641 C180.75008037 14.61648179 178.48209528 14.62162489 176.21411133 14.62721252 C171.31572176 14.63851826 166.41733837 14.64694064 161.51893997 14.65333176 C153.7698768 14.66399076 146.02085764 14.68423185 138.27182007 14.70645142 C135.62082107 14.7139073 132.969822 14.72133619 130.31882286 14.72873878 C129.65618416 14.73058935 128.99354545 14.73243992 128.31082679 14.73434656 C120.76109576 14.75529005 113.21135994 14.77410761 105.66162109 14.79199219 C104.97124938 14.79363037 104.28087767 14.79526855 103.56958561 14.79695638 C92.40292968 14.82319358 81.23627046 14.84186155 70.06959684 14.85858409 C58.6009743 14.87603574 47.13242881 14.90510602 35.66385496 14.94347346 C29.22649331 14.96452878 22.7892236 14.97999858 16.35182571 14.98228073 C10.28944479 14.98443222 4.22725494 15.000353 -1.83506775 15.02667046 C-4.05576651 15.03384712 -6.27648845 15.03597238 -8.4971962 15.03256798 C-23.88331384 14.87967952 -23.88331384 14.87967952 -38.74609375 18.45410156 C-40.06650903 18.83145625 -41.38934946 19.20046312 -42.71484375 19.55957031 C-59.86646129 24.81509914 -73.24085049 36.64078164 -81.74609375 52.45410156 C-90.40860284 72.25080997 -92.11084013 95.17115765 -84.19921875 115.54785156 C-81.1283018 123.05974679 -77.58631174 129.91436883 -72.74609375 136.45410156 C-72.3490625 137.06382812 -71.95203125 137.67355469 -71.54296875 138.30175781 C-63.74936602 150.12205529 -50.75709019 157.70828729 -37.74609375 162.45410156 C-36.42738281 162.99550781 -36.42738281 162.99550781 -35.08203125 163.54785156 C-30.2861432 164.85071576 -25.57214317 164.97203141 -20.62109375 165.14160156 C-19.58718506 165.17777588 -18.55327637 165.2139502 -17.48803711 165.2512207 C4.02894533 165.90078358 22.02857283 160.00712047 38.671875 145.88769531 C44.31386456 140.57005614 49.22981062 134.63632869 52.25390625 127.45410156 C52.91390625 127.45410156 53.57390625 127.45410156 54.25390625 127.45410156 C54.45995483 126.58168823 54.45995483 126.58168823 54.67016602 125.69165039 C55.2102899 123.62128844 55.85879639 121.66131405 56.59375 119.65332031 C60.08984862 109.83844434 62.23632438 100.83343669 63.25390625 90.45410156 C67.54390625 90.45410156 71.83390625 90.45410156 76.25390625 90.45410156 C77.73363825 112.89670363 68.85157652 133.70028838 54.25390625 150.45410156 C53.10148437 151.91203125 53.10148437 151.91203125 51.92578125 153.39941406 C49.19764359 156.67723171 46.08612995 159.20786276 42.69140625 161.76660156 C42.12744141 162.20810547 41.56347656 162.64960938 40.98242188 163.10449219 C38.17122282 165.25152492 35.81663957 166.99242707 32.25390625 167.45410156 C32.25390625 168.11410156 32.25390625 168.77410156 32.25390625 169.45410156 C30.58723958 170.12076823 28.92057292 170.7874349 27.25390625 171.45410156 C26.38765625 171.82535156 25.52140625 172.19660156 24.62890625 172.57910156 C22.25390625 173.45410156 22.25390625 173.45410156 19.25390625 173.45410156 C19.25390625 174.11410156 19.25390625 174.77410156 19.25390625 175.45410156 C17.19238236 176.10304393 15.12964367 176.74812796 13.06640625 177.39160156 C11.91785156 177.75125 10.76929688 178.11089844 9.5859375 178.48144531 C-6.11782673 183.06554531 -28.6221472 182.68572769 -43.74609375 176.45410156 C-44.77863281 176.03547852 -44.77863281 176.03547852 -45.83203125 175.60839844 C-55.15017226 171.75853491 -63.33629783 167.40312026 -70.74609375 160.45410156 C-72.09767578 159.22046875 -72.09767578 159.22046875 -73.4765625 157.96191406 C-92.19097033 140.1509604 -103.3218946 116.07631697 -104.20336914 90.21020508 C-104.38054342 78.00340367 -102.51861769 67.03844473 -98.74609375 55.45410156 C-98.2046875 53.76220703 -98.2046875 53.76220703 -97.65234375 52.03613281 C-91.88580992 36.4458967 -79.8811475 23.34461433 -66.30859375 14.14160156 C-65.72440674 13.74489258 -65.14021973 13.34818359 -64.53833008 12.93945312 C-55.79737295 7.26409584 -46.83427317 3.74201988 -36.54272461 2.16998291 C-35.50548469 2.0058774 -34.46824476 1.84177189 -33.39957333 1.67269349 C-22.26022011 0.04108675 -11.23564324 -0.08062604 0 0 Z " fill="#EFEFF0" transform="translate(123.74609375,273.5458984375)"/>
<path d="M0 0 C1.44711417 1.19680253 2.88468117 2.4052422 4.3125 3.625 C5.05113281 4.21925781 5.78976562 4.81351563 6.55078125 5.42578125 C23.77476369 19.79397386 34.49674184 42.7094384 36.62597656 64.890625 C37.59488238 81.6395496 36.21400968 97.56532825 28.3125 112.625 C27.87035156 113.50542969 27.42820312 114.38585937 26.97265625 115.29296875 C23.67547224 121.63370723 19.87929278 127.14281446 15.3125 132.625 C14.82652344 133.26824219 14.34054687 133.91148437 13.83984375 134.57421875 C5.08808156 145.60904934 -8.61102942 153.99023834 -21.6875 158.8125 C-22.36039062 159.07224609 -23.03328125 159.33199219 -23.7265625 159.59960938 C-30.3273672 162.06535399 -36.57676054 162.76016226 -43.625 162.6875 C-45.625625 162.666875 -47.62625 162.64625 -49.6875 162.625 C-49.6875 158.005 -49.6875 153.385 -49.6875 148.625 C-46.47 148.4084375 -46.47 148.4084375 -43.1875 148.1875 C-37.98908659 147.81844428 -32.84767381 147.34742433 -27.6875 146.625 C-27.6875 145.965 -27.6875 145.305 -27.6875 144.625 C-25.8972939 143.95442113 -24.10528511 143.2886531 -22.3125 142.625 C-21.31476563 142.25375 -20.31703125 141.8825 -19.2890625 141.5 C-16.6875 140.625 -16.6875 140.625 -14.6875 140.625 C-14.6875 139.965 -14.6875 139.305 -14.6875 138.625 C-12.96484375 137.328125 -12.96484375 137.328125 -10.625 135.875 C-1.98737223 130.24704566 3.53086072 124.21486408 9.3125 115.625 C10.13621094 114.43390625 10.13621094 114.43390625 10.9765625 113.21875 C21.16312505 97.5471153 23.94247904 76.84974207 20.69921875 58.55078125 C17.71744009 46.1901922 11.87622471 33.17041998 3.3125 23.625 C2.68085938 22.90183594 2.04921875 22.17867187 1.3984375 21.43359375 C-10.26613875 8.89947637 -27.22704827 0.54460836 -44.40551758 -0.54785156 C-47.18990716 -0.60609103 -49.96530838 -0.59937048 -52.75 -0.5625 C-53.67876953 -0.56185547 -54.60753906 -0.56121094 -55.56445312 -0.56054688 C-63.06320637 -0.51318633 -70.43552006 -0.05404284 -77.75 1.6875 C-78.50410156 1.86410156 -79.25820312 2.04070313 -80.03515625 2.22265625 C-80.85306641 2.42181641 -80.85306641 2.42181641 -81.6875 2.625 C-81.6875 3.285 -81.6875 3.945 -81.6875 4.625 C-82.63625 4.975625 -83.585 5.32625 -84.5625 5.6875 C-99.84370548 12.31140963 -111.80192289 25.80967729 -117.9375 41.0625 C-122.01180432 51.61227435 -124.78032648 61.90640455 -124.84571838 73.2752533 C-124.8555072 74.57224152 -124.86529602 75.86922974 -124.87538147 77.20552063 C-124.88128415 78.62521326 -124.88709469 80.04490627 -124.89282227 81.46459961 C-124.9024117 82.97300478 -124.91242239 84.48140732 -124.92282104 85.98980713 C-124.94976086 90.06982412 -124.97082927 94.14985255 -124.99082303 98.2299087 C-125.01275029 102.49936788 -125.04010589 106.76879223 -125.06687927 111.03822327 C-125.11671528 119.1163532 -125.1616877 127.19450255 -125.20490164 135.27267033 C-125.2543519 144.47219694 -125.30924105 153.6716886 -125.36458123 162.87118137 C-125.47826164 181.78908863 -125.58493791 200.70702942 -125.6875 219.625 C-129.9775 219.625 -134.2675 219.625 -138.6875 219.625 C-138.75712601 198.89228928 -138.81057526 178.15960699 -138.84293652 157.42680264 C-138.85836581 147.79889874 -138.87937951 138.1710691 -138.91381836 128.54321289 C-138.94384185 120.14568579 -138.96310357 111.74821249 -138.96976548 103.3506332 C-138.97365593 98.90951912 -138.98271566 94.46855891 -139.00469017 90.02749443 C-139.0252606 85.83568898 -139.03129292 81.64409876 -139.02682304 77.45224762 C-139.02763916 75.92499428 -139.03348117 74.39773269 -139.04511642 72.87052345 C-139.13116435 60.9790292 -138.78764464 48.08103183 -132.7109375 37.50390625 C-131.51942823 35.31644076 -130.72190373 33.09165261 -129.875 30.75 C-123.63003643 14.95675235 -109.04448088 0.16046415 -93.6875 -6.875 C-91.05731692 -7.95098399 -88.45495876 -8.73255422 -85.6875 -9.375 C-85.6875 -10.035 -85.6875 -10.695 -85.6875 -11.375 C-58.2136034 -21.56692938 -23.44451168 -17.899375 0 0 Z " fill="#F3F3F3" transform="translate(268.6875,37.375)"/>
<path d="M0 0 C2.26804595 0.00084759 4.53609271 0.00036855 6.80413818 -0.00132751 C12.92302196 -0.00218372 19.04172717 0.01538124 25.16056967 0.03639436 C31.56936823 0.05522382 37.97817146 0.05691653 44.38699341 0.06047058 C55.13140513 0.06871765 65.87573929 0.08742098 76.62011719 0.11425781 C87.68000975 0.14185376 98.73988458 0.16306013 109.79980469 0.17578125 C110.48313554 0.17656942 111.1664664 0.17735759 111.87050425 0.17816965 C115.29905164 0.18208515 118.72759916 0.18587618 122.15614676 0.18960536 C150.53659696 0.22063493 178.91697662 0.27363745 207.29736328 0.34057617 C207.29736328 4.63057617 207.29736328 8.92057617 207.29736328 13.34057617 C205.54446566 13.34692408 205.54446566 13.34692408 203.75615597 13.35340023 C176.00983645 13.45409722 148.26353973 13.55981063 120.51726296 13.67169311 C117.10143392 13.68546253 113.68560471 13.69918965 110.26977539 13.71289062 C109.2497394 13.71698308 109.2497394 13.71698308 108.20909662 13.72115821 C97.20134028 13.76522128 86.19357384 13.80585906 75.18579983 13.84522878 C63.88901675 13.88570849 52.5922526 13.9299468 41.29549652 13.97745472 C34.95105176 14.00401692 28.60661064 14.02886905 22.26214409 14.04965019 C16.29095557 14.06926237 10.31980272 14.09341985 4.34864616 14.12106705 C2.15690256 14.13041322 -0.03484886 14.13809719 -2.22660446 14.14399529 C-5.2194731 14.15229788 -8.21225613 14.1665861 -11.20509338 14.18235779 C-12.07183971 14.18333589 -12.93858603 14.184314 -13.83159739 14.18532175 C-26.84562994 14.27347922 -35.88663064 17.74814277 -45.43701172 26.74291992 C-54.42588531 37.04912844 -56.75255441 49.96453016 -55.9453125 63.21313477 C-55.32102054 68.68605237 -53.15715209 73.47050598 -50.70263672 78.34057617 C-50.25662109 79.24549805 -49.81060547 80.15041992 -49.35107422 81.08276367 C-43.1440542 92.49119711 -33.78298531 98.31379331 -21.70263672 102.34057617 C-19.85653139 102.42296786 -18.00758508 102.44800976 -16.15966797 102.43823242 C-14.54995117 102.43339844 -14.54995117 102.43339844 -12.90771484 102.4284668 C-11.78816406 102.42008789 -10.66861328 102.41170898 -9.51513672 102.40307617 C-8.38398437 102.39856445 -7.25283203 102.39405273 -6.08740234 102.3894043 C-3.29242745 102.37761115 -0.49755852 102.36115267 2.29736328 102.34057617 C2.29736328 101.68057617 2.29736328 101.02057617 2.29736328 100.34057617 C2.92642578 100.12143555 3.55548828 99.90229492 4.20361328 99.67651367 C16.29096278 95.19836913 24.88982141 87.51020142 30.45361328 75.73510742 C32.32291049 70.43011117 33.27412899 64.85983992 34.29736328 59.34057617 C38.58736328 59.34057617 42.87736328 59.34057617 47.29736328 59.34057617 C48.15825352 75.48226816 42.29463166 87.43683926 32.04736328 99.59057617 C25.22430832 106.9009922 14.54219928 114.74916099 4.23486328 115.59057617 C3.59548828 115.50807617 2.95611328 115.42557617 2.29736328 115.34057617 C2.29736328 116.00057617 2.29736328 116.66057617 2.29736328 117.34057617 C-10.70487212 120.9774122 -26.29562524 118.6926017 -38.20263672 112.84057617 C-53.65905749 103.77607581 -64.10740283 90.05761518 -69.00854492 72.93017578 C-72.75767412 58.30511967 -71.68502278 42.18905032 -64.98779297 28.48901367 C-57.84570674 16.54935585 -47.24452351 6.73122314 -33.86454582 2.42774487 C-22.60413395 -0.2433065 -11.51237937 -0.06059583 0 0 Z " fill="#F5F5F5" transform="translate(121.70263671875,304.659423828125)"/>
<path d="M0 0 C7.59 0 15.18 0 23 0 C23 0.66 23 1.32 23 2 C24.85625 2.309375 24.85625 2.309375 26.75 2.625 C37.79101676 5.13826127 46.15025049 11.05177693 54 19 C54.57492187 19.55300781 55.14984375 20.10601562 55.7421875 20.67578125 C65.53716543 30.90214422 68.39645662 45.10478158 68.375 58.75 C68.37483887 59.71284912 68.37467773 60.67569824 68.37451172 61.66772461 C68.25094816 69.40995724 67.00381831 75.81933945 64 83 C63.43925781 84.40572266 63.43925781 84.40572266 62.8671875 85.83984375 C62.58101563 86.55269531 62.29484375 87.26554687 62 88 C61.34 88 60.68 88 60 88 C59.7215625 88.99 59.7215625 88.99 59.4375 90 C53.4380834 102.52052161 39.9731022 111.16994961 27.375 115.875 C22.84920487 117.27447734 18.7100234 117.22428683 14 117 C14 112.05 14 107.1 14 102 C15.65 101.9175 17.3 101.835 19 101.75 C29.96144237 100.67342977 36.4680976 94.80428252 44 87 C51.94608687 77.29017889 54.89592722 64.29411235 54 52 C51.82970737 39.98982128 45.71961623 30.27027294 36 23 C35.34 22.67 34.68 22.34 34 22 C34 21.34 34 20.68 34 20 C32.02 19.67 30.04 19.34 28 19 C28 18.34 28 17.68 28 17 C14.09165164 14.26248381 -1.74982227 14.52359521 -13.8125 22.5 C-22.37635778 29.24989943 -27.2359341 38.57585156 -30 49 C-30.55760553 54.15303313 -30.5555735 59.28465028 -30.5300293 64.46142578 C-30.53714098 65.98850887 -30.54601044 67.51558461 -30.55648804 69.04264832 C-30.57992984 73.15565878 -30.57938819 77.26835011 -30.57457328 81.38141108 C-30.57397707 85.69312669 -30.59670938 90.00471761 -30.61714172 94.31637573 C-30.65244536 102.46758084 -30.66855181 110.61869695 -30.6769169 118.76996982 C-30.68992336 130.76007562 -30.72813342 142.75010841 -30.77101612 154.74014091 C-30.77572415 156.05773452 -30.77572415 156.05773452 -30.78052729 157.40194619 C-30.78680644 159.15235674 -30.79314998 160.90276706 -30.79955989 162.65317714 C-30.81765215 167.78688838 -30.82873802 172.9205556 -30.83385694 178.05429578 C-30.83767615 181.23483752 -30.84528291 184.41536313 -30.8536644 187.59589577 C-30.85663524 189.07581016 -30.85785814 190.55572919 -30.85725212 192.03564644 C-30.85658979 194.04688995 -30.86244739 196.05813254 -30.86869812 198.06936646 C-30.8699554 199.19718096 -30.87121267 200.32499546 -30.87250805 201.48698616 C-31 204 -31 204 -32 205 C-34.18639453 205.07258946 -36.37500389 205.08373783 -38.5625 205.0625 C-39.76003906 205.05347656 -40.95757812 205.04445313 -42.19140625 205.03515625 C-43.11824219 205.02355469 -44.04507813 205.01195312 -45 205 C-45.04681398 185.38892065 -45.08203479 165.7778527 -45.10362434 146.16672897 C-45.11391719 137.06002682 -45.12793929 127.95335949 -45.15087891 118.84667969 C-45.17087393 110.90514325 -45.1837309 102.96363204 -45.18817699 95.02207112 C-45.19077405 90.82086262 -45.19683639 86.61972624 -45.21146011 82.41854095 C-45.22514083 78.45577124 -45.22920168 74.49310267 -45.22621536 70.53031158 C-45.22676087 69.08404489 -45.23067537 67.63777443 -45.23841095 66.19152832 C-45.30054763 53.96382934 -44.58906692 43.0034755 -39 32 C-38.62875 31.17628906 -38.2575 30.35257813 -37.875 29.50390625 C-31.74115435 16.24753588 -20.64813354 7.10807337 -7 2 C-3.0625 1.8125 -3.0625 1.8125 0 2 C0 1.34 0 0.68 0 0 Z " fill="#F4F4F5" transform="translate(205,53)"/>
<path d="M0 0 C0.92971823 -0.00256327 1.85943646 -0.00512655 2.81732798 -0.0077675 C5.9158737 -0.0126877 9.01392633 0.00375852 12.11242676 0.02018738 C14.34017933 0.02103403 16.56793273 0.02055776 18.79568481 0.01885986 C24.83228225 0.01799998 30.86870045 0.03562483 36.90525627 0.05658174 C43.21799686 0.07534956 49.53074167 0.07709907 55.84350586 0.08065796 C66.43545571 0.08891952 77.02734691 0.10765161 87.6192627 0.13444519 C98.52616041 0.16200677 109.43304028 0.18323006 120.33996582 0.19596863 C121.01292503 0.1967568 121.68588425 0.19754497 122.37923616 0.19835702 C125.75547108 0.2022723 129.13170612 0.20606339 132.50794125 0.20979273 C160.4913831 0.24086341 188.4747524 0.29390101 216.45812988 0.36076355 C216.48498927 2.50652992 216.50446076 4.65239 216.52062988 6.79826355 C216.53223145 7.99322449 216.54383301 9.18818542 216.55578613 10.4193573 C216.45812988 13.36076355 216.45812988 13.36076355 215.45812988 14.36076355 C212.61221286 14.46666848 209.79019176 14.50680558 206.94354248 14.50552368 C205.58772965 14.51081395 205.58772965 14.51081395 204.20452666 14.51621109 C201.15136072 14.5269542 198.0982259 14.53058877 195.04504395 14.53434753 C192.86584337 14.54064854 190.68664409 14.54741383 188.50744629 14.55461121 C183.80221068 14.56931327 179.09698015 14.58102496 174.39173126 14.59055901 C166.95516098 14.60596949 159.51863379 14.62991862 152.08209229 14.65545654 C141.65764007 14.69060412 131.23318449 14.72369275 120.80871582 14.75358582 C120.14667639 14.75548631 119.48463697 14.7573868 118.80253574 14.75934488 C109.41220694 14.78616307 100.02187292 14.81003879 90.63153335 14.83272988 C78.29206465 14.86255593 65.95263967 14.89876804 53.61321807 14.94422394 C46.21762922 14.97103575 38.82208868 14.98891697 31.42646074 15.00026119 C26.82644127 15.00937562 22.22648051 15.0267323 17.62649536 15.04644012 C15.4903531 15.05392517 13.3541958 15.05799726 11.21804047 15.05843544 C8.30546061 15.05951546 5.39318059 15.072741 2.48065186 15.08901978 C1.20783556 15.08509449 1.20783556 15.08509449 -0.09069419 15.08108991 C-5.17066174 15.12554343 -9.33239875 15.38802126 -13.29187012 18.92326355 C-15.89674376 24.00276715 -16.01608222 28.75371142 -14.41687012 34.17326355 C-12.31714126 37.74280261 -11.22725523 39.44129214 -7.54187012 41.36076355 C-2.68687533 42.30584888 1.53496101 42.45534933 5.91516113 39.96232605 C10.1841058 36.43948523 11.32470817 35.0278721 12.45812988 29.36076355 C17.07812988 29.36076355 21.69812988 29.36076355 26.45812988 29.36076355 C25.51050009 37.67884727 23.78905617 43.58807525 17.45812988 49.36076355 C14.72766113 50.6068573 14.72766113 50.6068573 12.45812988 51.36076355 C12.45812988 52.02076355 12.45812988 52.68076355 12.45812988 53.36076355 C5.77949313 57.17712741 -0.99665689 57.22715927 -8.54187012 56.36076355 C-17.16494473 53.91223619 -22.99537551 47.96112035 -27.70202637 40.5287323 C-31.04406597 33.39386637 -30.84681222 23.7859672 -28.66296387 16.3802948 C-25.43273285 9.3334872 -21.06674008 4.91117128 -14.00469208 1.80494213 C-9.28879569 0.07478921 -4.98175745 -0.05085349 0 0 Z " fill="#EDEDED" transform="translate(112.5418701171875,334.6392364501953)"/>
<path d="M0 0 C6.38744849 4.421312 11.09342367 9.33556317 13 17 C14.14765948 25.58075634 12.15128088 32.25693229 7.125 39.1875 C-0.18243544 48.39414515 -0.18243544 48.39414515 -5 50 C-6.98 50 -8.96 50 -11 50 C-11 45.05 -11 40.1 -11 35 C-9.02 34.01 -7.04 33.02 -5 32 C-4.34 31.01 -3.68 30.02 -3 29 C-2.34 29 -1.68 29 -1 29 C-0.51765417 21.67067133 -0.51765417 21.67067133 -3 15 C-5.26234675 13.41165494 -7.51277878 12.24361061 -10 11 C-10 10.34 -10 9.68 -10 9 C-15.64313915 9.93437598 -19.813082 10.813082 -24 15 C-25.36617227 17.73234455 -25.13728714 19.90644482 -25.15148926 22.96632385 C-25.15983292 24.23816528 -25.16817657 25.51000671 -25.17677307 26.82038879 C-25.18108276 28.2377622 -25.18530654 29.65513587 -25.18945312 31.07250977 C-25.19739273 32.55885046 -25.20578046 34.04518883 -25.21458435 35.53152466 C-25.23266086 38.73616931 -25.24766934 41.94080875 -25.26036072 45.1454792 C-25.28054531 50.20769178 -25.30820158 55.26984631 -25.33703613 60.33201599 C-25.40229341 71.99039135 -25.45770582 83.64880971 -25.51302338 95.30723572 C-25.56381891 105.99260686 -25.61666173 116.67795692 -25.67754889 127.36327595 C-25.70596728 132.40079245 -25.72953798 137.43830191 -25.74947357 142.47585881 C-25.76282102 145.60287938 -25.78023525 148.72986749 -25.79878426 151.85686111 C-25.80656735 153.3125737 -25.812625 154.76829664 -25.81687737 156.22402382 C-25.82288618 158.20292145 -25.83549996 160.18179581 -25.84851074 162.16065979 C-25.85366447 163.27066628 -25.85881821 164.38067278 -25.86412811 165.52431583 C-26 168 -26 168 -27 169 C-29.18639453 169.07258946 -31.37500389 169.08373783 -33.5625 169.0625 C-34.76003906 169.05347656 -35.95757812 169.04445313 -37.19140625 169.03515625 C-38.11824219 169.02355469 -39.04507813 169.01195312 -40 169 C-40.07018 149.61516081 -40.12303216 130.23034751 -40.15543652 110.84540749 C-40.17088446 101.8439979 -40.19193423 92.84266741 -40.22631836 83.84130859 C-40.2562843 75.99281458 -40.27559006 68.14437786 -40.28226548 60.29582822 C-40.28616558 56.14270963 -40.29528786 51.98975491 -40.31719017 47.836689 C-40.3376692 43.92149654 -40.34381093 40.00653427 -40.33932304 36.09129333 C-40.34014317 34.66030498 -40.34604056 33.22930831 -40.35761642 31.79836655 C-40.44254768 20.75057224 -39.93246008 10.99112047 -32.03515625 2.69140625 C-22.48030918 -5.2495703 -10.69588728 -5.78817071 0 0 Z " fill="#F7F6F7" transform="translate(230,89)"/>
<path d="M0 0 C0.33 0 0.66 0 1 0 C1 49.5 1 99 1 150 C4.63 150 8.26 150 12 150 C12 101.16 12 52.32 12 2 C12.66 1.67 13.32 1.34 14 1 C14.02332758 20.54029795 14.04097848 40.08059309 14.05181217 59.62090206 C14.05697543 68.69315493 14.06401869 77.76539916 14.07543945 86.83764648 C14.08538538 94.74208712 14.09185321 102.64652151 14.09408849 110.55096823 C14.09539576 114.73894719 14.09848259 118.92690827 14.10573006 123.11488152 C14.11248884 127.05215298 14.11461725 130.98939908 14.11310768 134.9266758 C14.11338407 136.37594617 14.11539004 137.82521735 14.11920547 139.27448273 C14.12414043 141.24470414 14.12239809 143.21493898 14.12025452 145.18516541 C14.12117631 146.29039519 14.1220981 147.39562498 14.12304783 148.53434658 C14 151 14 151 13 152 C8.71 152 4.42 152 0 152 C0 101.84 0 51.68 0 0 Z " fill="#B4B4B4" transform="translate(160,106)"/>
<path d="M0 0 C0.33 0 0.66 0 1 0 C1 48.84 1 97.68 1 148 C4.63 148 8.26 148 12 148 C12 99.49 12 50.98 12 1 C12.66 1 13.32 1 14 1 C14.02332767 20.2795303 14.04097853 39.55905774 14.05181217 58.83859921 C14.05697541 67.78978382 14.06401863 76.74095968 14.07543945 85.69213867 C14.08538545 93.49110388 14.09185322 101.29006276 14.09408849 109.08903414 C14.09539575 113.22112186 14.09848251 117.35319144 14.10573006 121.48527336 C14.11248894 125.37001526 14.11461723 129.25473146 14.11310768 133.13947868 C14.11338407 134.56939839 14.11538998 135.99931891 14.11920547 137.42923355 C14.12414059 139.37318051 14.12239805 141.31714109 14.12025452 143.26109314 C14.12117631 144.35157424 14.1220981 145.44205534 14.12304783 146.56558132 C14 149 14 149 13 150 C8.71 150 4.42 150 0 150 C0 100.5 0 51 0 0 Z " fill="#ACADAD" transform="translate(190,108)"/>
<path d="M0 0 C0.66 0.33 1.32 0.66 2 1 C-3.61 6.61 -9.22 12.22 -15 18 C-15.66 17.67 -16.32 17.34 -17 17 C-15.10858512 14.91250542 -13.21212032 12.8300063 -11.3125 10.75 C-10.78205078 10.16347656 -10.25160156 9.57695312 -9.70507812 8.97265625 C-6.66812306 5.6562268 -3.61365652 2.70856629 0 0 Z " fill="#CAC9CA" transform="translate(278,448)"/>
<path d="M0 0 C0.66 0.33 1.32 0.66 2 1 C-3.94 6.94 -9.88 12.88 -16 19 C-16.66 18.67 -17.32 18.34 -18 18 C-6.66287016 5.33029613 -6.66287016 5.33029613 0 0 Z " fill="#373739" transform="translate(42,277)"/>
<path d="M0 0 C0.66 0.33 1.32 0.66 2 1 C-2.95 5.95 -7.9 10.9 -13 16 C-13.66 15.67 -14.32 15.34 -15 15 C-10.28109462 9.59947495 -5.69641143 4.38185495 0 0 Z " fill="#C7C7C8" transform="translate(299,471)"/>
<path d="M0 0 C0.66 0.33 1.32 0.66 2 1 C-3.28 6.28 -8.56 11.56 -14 17 C-14.66 16.67 -15.32 16.34 -16 16 C-5.62642369 4.29384966 -5.62642369 4.29384966 0 0 Z " fill="#C9C9CB" transform="translate(164,37)"/>
<path d="M0 0 C0.66 0.33 1.32 0.66 2 1 C-2.62 5.62 -7.24 10.24 -12 15 C-12.66 14.67 -13.32 14.34 -14 14 C-9.61932717 8.89662734 -5.32423478 4.12628195 0 0 Z " fill="#353536" transform="translate(151,25)"/>
<path d="M0 0 C0.66 0.33 1.32 0.66 2 1 C0.03580523 2.96419477 -1.92859724 4.92817052 -3.89453125 6.890625 C-5.12647802 8.12485738 -6.35481994 9.36274396 -7.57421875 10.609375 C-10.79430836 13.89715418 -10.79430836 13.89715418 -13 15 C-10.28341041 8.57897007 -5.33989457 4.22224222 0 0 Z " fill="#383839" transform="translate(385,211)"/>
<path d="M0 0 C0 0.66 0 1.32 0 2 C-1.66248338 3.00693931 -3.33005424 4.00548558 -5 5 C-6.64760066 6.51663081 -8.25248462 8.08091699 -9.8125 9.6875 C-10.99779297 10.89986328 -10.99779297 10.89986328 -12.20703125 12.13671875 C-12.79871094 12.75160156 -13.39039063 13.36648437 -14 14 C-14 9.92365375 -12.76948435 8.97719568 -10 6 C-2.83962264 0 -2.83962264 0 0 0 Z " fill="#3D3D3F" transform="translate(408,234)"/>
<path d="M0 0 C0.66 0.33 1.32 0.66 2 1 C-2.29 5.29 -6.58 9.58 -11 14 C-11 9.40845608 -8.09282279 7.18698368 -5 4 C-3.3719908 2.61973133 -1.71956118 1.26438322 0 0 Z " fill="#C9C9CA" transform="translate(183,63)"/>
<path d="M0 0 C0.66 0.33 1.32 0.66 2 1 C-1.63 4.63 -5.26 8.26 -9 12 C-9 7.8407692 -6.75316432 5.85455565 -4 3 C-1.6875 1.125 -1.6875 1.125 0 0 Z " fill="#383839" transform="translate(192,74)"/>
<path d="M0 0 C0.66 0.33 1.32 0.66 2 1 C-1.63 4.96 -5.26 8.92 -9 13 C-9 8.86218946 -7.28490393 7.79080004 -4.5 4.8125 C-3.6646875 3.91144531 -2.829375 3.01039063 -1.96875 2.08203125 C-0.99421875 1.05142578 -0.99421875 1.05142578 0 0 Z " fill="#C4C3C5" transform="translate(70,317)"/>
<path d="M0 0 C0.66 0.33 1.32 0.66 2 1 C-1.3 4.3 -4.6 7.6 -8 11 C-8.66 10.67 -9.32 10.34 -10 10 C-6.92118304 6.12948725 -3.99926986 2.97088618 0 0 Z " fill="#CAC9CB" transform="translate(395,225)"/>
<path d="M0 0 C0.66 0.33 1.32 0.66 2 1 C-0.64 3.64 -3.28 6.28 -6 9 C-6.66 8.67 -7.32 8.34 -8 8 C-3.375 2.25 -3.375 2.25 0 0 Z " fill="#BEBFC0" transform="translate(95,338)"/>
<path d="M0 0 C0.66 0.33 1.32 0.66 2 1 C-0.64 3.64 -3.28 6.28 -6 9 C-6.66 8.67 -7.32 8.34 -8 8 C-3.375 2.25 -3.375 2.25 0 0 Z " fill="#C9C9CA" transform="translate(203,88)"/>
<path d="M0 0 C0.66 0 1.32 0 2 0 C0.55746343 3.36591866 -1.33264727 5.51047079 -4 8 C-4.33 7.34 -4.66 6.68 -5 6 C-3.38405168 3.95880212 -1.7143618 1.95927063 0 0 Z " fill="#3E3D3F" transform="translate(209,100)"/>
</svg>
