<svg xmlns="http://www.w3.org/2000/svg" viewBox="0 0 180 180">
  <rect width="180" height="180" rx="40" fill="#09090b"/>
  <g transform="rotate(-14 90 90)" fill="#ffffff" fill-rule="evenodd">
    <path d="
      M 18 90
      a 72 22 0 1 0 144 0
      a 72 22 0 1 0 -144 0
      Z
      M 28 90
      a 62 13 0 1 1 124 0
      a 62 13 0 1 1 -124 0
      Z
    "/>
    <path d="
      M 48 86
      a 42 42 0 1 0 84 0
      a 42 42 0 1 0 -84 0
      Z
      M 90 62
      C 97 75 104 77 130 86
      C 104 95 97 97 90 110
      C 83 97 76 95 50 86
      C 76 77 83 75 90 62
      Z
    "/>
  </g>
</svg>
