<svg xmlns="http://www.w3.org/2000/svg" viewBox="10 10 60 60">
  <defs>
    <mask id="m" maskUnits="userSpaceOnUse" x="0" y="0" width="80" height="80">
      <g fill="none" stroke-linecap="round" stroke-linejoin="round">
        <path d="M 24 16 a 10 10 0 1 0 10 10 V 40 H 56" stroke="white" stroke-width="8"/>
        <path d="M 56 64 a 10 10 0 1 0 -10 -10 V 40 H 24" stroke="white" stroke-width="8"/>
        <path d="M 24 16 a 10 10 0 1 0 10 10 V 40 H 56" stroke="black" stroke-width="4"/>
        <path d="M 56 64 a 10 10 0 1 0 -10 -10 V 40 H 24" stroke="black" stroke-width="4"/>
        <path d="M 24 16 a 10 10 0 1 0 10 10 V 40 H 56" stroke="white" stroke-width="1.5"/>
        <path d="M 56 64 a 10 10 0 1 0 -10 -10 V 40 H 24" stroke="white" stroke-width="1.5"/>
      </g>
    </mask>
  </defs>
  <g mask="url(#m)" stroke="#09090b" stroke-width="8" stroke-linecap="round" stroke-linejoin="round" fill="none">
    <path d="M 24 16 a 10 10 0 1 0 10 10 V 40 H 56"/>
    <path d="M 56 64 a 10 10 0 1 0 -10 -10 V 40 H 24"/>
  </g>
</svg>
