<svg xmlns="http://www.w3.org/2000/svg" viewBox="0 0 32 32">
  <rect width="32" height="32" rx="8" fill="#09090b"/>
  <g transform="rotate(-14 16 16)" fill="#ffffff" fill-rule="evenodd">
    <path d="
      M 4.5 16
      a 11.5 3.4 0 1 0 23 0
      a 11.5 3.4 0 1 0 -23 0
      Z
      M 6.2 16
      a 9.8 2 0 1 1 19.6 0
      a 9.8 2 0 1 1 -19.6 0
      Z
    "/>
    <path d="
      M 9.5 15.4
      a 6.6 6.6 0 1 0 13.2 0
      a 6.6 6.6 0 1 0 -13.2 0
      Z
      M 16 11.7
      C 17.15 13.7 18.3 14 22.3 15.4
      C 18.3 16.85 17.15 17.15 16 19.15
      C 14.85 17.15 13.7 16.85 9.7 15.4
      C 13.7 14 14.85 13.7 16 11.7
      Z
    "/>
  </g>
</svg>
